<svg width="163" height="45" viewBox="0 0 163 45" fill="none" xmlns="http://www.w3.org/2000/svg">
<circle cx="12.3563" cy="23.7549" r="12.3563" fill="#6842EF"/>
<circle cx="23.7858" cy="8.00068" r="5.25141" fill="#2ACCC8"/>
<path d="M58.6083 17.4653H54.6192C54.4657 16.6129 54.1802 15.8628 53.7625 15.215C53.3448 14.5672 52.8334 14.0174 52.2282 13.5657C51.623 13.1139 50.9454 12.7729 50.1953 12.5428C49.4537 12.3126 48.6652 12.1976 47.8299 12.1976C46.3212 12.1976 44.9702 12.5769 43.7768 13.3355C42.592 14.0941 41.6544 15.2065 40.9639 16.6726C40.282 18.1387 39.9411 19.9287 39.9411 22.0426C39.9411 24.1736 40.282 25.9721 40.9639 27.4382C41.6544 28.9043 42.5963 30.0124 43.7896 30.7625C44.9829 31.5126 46.3254 31.8877 47.8171 31.8877C48.6439 31.8877 49.4281 31.7769 50.1697 31.5552C50.9198 31.3251 51.5974 30.9884 52.2026 30.5452C52.8078 30.1019 53.3193 29.5607 53.7369 28.9214C54.1631 28.2736 54.4572 27.532 54.6192 26.6966L58.6083 26.7094C58.3952 27.9965 57.9818 29.1813 57.3681 30.2639C56.7629 31.3379 55.983 32.267 55.0283 33.0512C54.0821 33.8268 52.9996 34.4278 51.7807 34.854C50.5618 35.2802 49.2321 35.4933 47.7915 35.4933C45.5242 35.4933 43.5041 34.9563 41.7311 33.8822C39.9581 32.7997 38.5602 31.2526 37.5374 29.241C36.523 27.2294 36.0158 24.8299 36.0158 22.0426C36.0158 19.2468 36.5273 16.8473 37.5501 14.8442C38.573 12.8326 39.9709 11.2898 41.7439 10.2158C43.5168 9.13325 45.5327 8.59198 47.7915 8.59198C49.1809 8.59198 50.4766 8.7923 51.6784 9.19292C52.8888 9.58501 53.9756 10.1646 54.9388 10.9318C55.902 11.6904 56.699 12.6195 57.3297 13.7191C57.9605 14.8101 58.3867 16.0589 58.6083 17.4653ZM67.2867 8.94999V35.1353H63.3359V8.94999H67.2867ZM73.0403 35.1353V8.94999H82.3739C84.4025 8.94999 86.086 9.29946 87.4243 9.99842C88.771 10.6974 89.7768 11.6648 90.4417 12.9008C91.1066 14.1282 91.439 15.5474 91.439 17.1585C91.439 18.7609 91.1023 20.1716 90.4289 21.3905C89.764 22.6009 88.7582 23.5428 87.4115 24.2162C86.0732 24.8896 84.3898 25.2263 82.3611 25.2263H75.2906V21.8253H82.0031C83.2817 21.8253 84.3216 21.642 85.1228 21.2755C85.9326 20.9089 86.525 20.3762 86.9 19.6773C87.2751 18.9783 87.4626 18.1387 87.4626 17.1585C87.4626 16.1697 87.2708 15.313 86.8873 14.5885C86.5122 13.864 85.9198 13.3099 85.11 12.9264C84.3088 12.5343 83.2561 12.3382 81.9519 12.3382H76.9911V35.1353H73.0403ZM85.9667 23.3212L92.4363 35.1353H87.9357L81.5939 23.3212H85.9667ZM117.995 17.4653H114.006C113.852 16.6129 113.567 15.8628 113.149 15.215C112.732 14.5672 112.22 14.0174 111.615 13.5657C111.01 13.1139 110.332 12.7729 109.582 12.5428C108.84 12.3126 108.052 12.1976 107.217 12.1976C105.708 12.1976 104.357 12.5769 103.164 13.3355C101.979 14.0941 101.041 15.2065 100.351 16.6726C99.6688 18.1387 99.3278 19.9287 99.3278 22.0426C99.3278 24.1736 99.6688 25.9721 100.351 27.4382C101.041 28.9043 101.983 30.0124 103.176 30.7625C104.37 31.5126 105.712 31.8877 107.204 31.8877C108.031 31.8877 108.815 31.7769 109.556 31.5552C110.307 31.3251 110.984 30.9884 111.589 30.5452C112.195 30.1019 112.706 29.5607 113.124 28.9214C113.55 28.2736 113.844 27.532 114.006 26.6966L117.995 26.7094C117.782 27.9965 117.369 29.1813 116.755 30.2639C116.15 31.3379 115.37 32.267 114.415 33.0512C113.469 33.8268 112.386 34.4278 111.167 34.854C109.949 35.2802 108.619 35.4933 107.178 35.4933C104.911 35.4933 102.891 34.9563 101.118 33.8822C99.3449 32.7997 97.9469 31.2526 96.9241 29.241C95.9097 27.2294 95.4026 24.8299 95.4026 22.0426C95.4026 19.2468 95.914 16.8473 96.9369 14.8442C97.9597 12.8326 99.3576 11.2898 101.131 10.2158C102.904 9.13325 104.919 8.59198 107.178 8.59198C108.568 8.59198 109.863 8.7923 111.065 9.19292C112.276 9.58501 113.362 10.1646 114.326 10.9318C115.289 11.6904 116.086 12.6195 116.716 13.7191C117.347 14.8101 117.773 16.0589 117.995 17.4653ZM122.723 35.1353V8.94999H126.673V31.7342H138.539V35.1353H122.723ZM139.092 8.94999H143.579L150.42 20.8535H150.701L157.541 8.94999H162.029L152.529 24.8555V35.1353H148.591V24.8555L139.092 8.94999Z" fill="#27313B"/>
<path d="M58.6083 17.4653H54.6192C54.4657 16.6129 54.1802 15.8628 53.7625 15.215C53.3448 14.5672 52.8334 14.0174 52.2282 13.5657C51.623 13.1139 50.9454 12.7729 50.1953 12.5428C49.4537 12.3126 48.6652 12.1976 47.8299 12.1976C46.3212 12.1976 44.9702 12.5769 43.7768 13.3355C42.592 14.0941 41.6544 15.2065 40.9639 16.6726C40.282 18.1387 39.9411 19.9287 39.9411 22.0426C39.9411 24.1736 40.282 25.9721 40.9639 27.4382C41.6544 28.9043 42.5963 30.0124 43.7896 30.7625C44.9829 31.5126 46.3254 31.8877 47.8171 31.8877C48.6439 31.8877 49.4281 31.7769 50.1697 31.5552C50.9198 31.3251 51.5974 30.9884 52.2026 30.5452C52.8078 30.1019 53.3193 29.5607 53.7369 28.9214C54.1631 28.2736 54.4572 27.532 54.6192 26.6966L58.6083 26.7094C58.3952 27.9965 57.9818 29.1813 57.3681 30.2639C56.7629 31.3379 55.983 32.267 55.0283 33.0512C54.0821 33.8268 52.9996 34.4278 51.7807 34.854C50.5618 35.2802 49.2321 35.4933 47.7915 35.4933C45.5242 35.4933 43.5041 34.9563 41.7311 33.8822C39.9581 32.7997 38.5602 31.2526 37.5374 29.241C36.523 27.2294 36.0158 24.8299 36.0158 22.0426C36.0158 19.2468 36.5273 16.8473 37.5501 14.8442C38.573 12.8326 39.9709 11.2898 41.7439 10.2158C43.5168 9.13325 45.5327 8.59198 47.7915 8.59198C49.1809 8.59198 50.4766 8.7923 51.6784 9.19292C52.8888 9.58501 53.9756 10.1646 54.9388 10.9318C55.902 11.6904 56.699 12.6195 57.3297 13.7191C57.9605 14.8101 58.3867 16.0589 58.6083 17.4653ZM67.2867 8.94999V35.1353H63.3359V8.94999H67.2867ZM73.0403 35.1353V8.94999H82.3739C84.4025 8.94999 86.086 9.29946 87.4243 9.99842C88.771 10.6974 89.7768 11.6648 90.4417 12.9008C91.1066 14.1282 91.439 15.5474 91.439 17.1585C91.439 18.7609 91.1023 20.1716 90.4289 21.3905C89.764 22.6009 88.7582 23.5428 87.4115 24.2162C86.0732 24.8896 84.3898 25.2263 82.3611 25.2263H75.2906V21.8253H82.0031C83.2817 21.8253 84.3216 21.642 85.1228 21.2755C85.9326 20.9089 86.525 20.3762 86.9 19.6773C87.2751 18.9783 87.4626 18.1387 87.4626 17.1585C87.4626 16.1697 87.2708 15.313 86.8873 14.5885C86.5122 13.864 85.9198 13.3099 85.11 12.9264C84.3088 12.5343 83.2561 12.3382 81.9519 12.3382H76.9911V35.1353H73.0403ZM85.9667 23.3212L92.4363 35.1353H87.9357L81.5939 23.3212H85.9667ZM117.995 17.4653H114.006C113.852 16.6129 113.567 15.8628 113.149 15.215C112.732 14.5672 112.22 14.0174 111.615 13.5657C111.01 13.1139 110.332 12.7729 109.582 12.5428C108.84 12.3126 108.052 12.1976 107.217 12.1976C105.708 12.1976 104.357 12.5769 103.164 13.3355C101.979 14.0941 101.041 15.2065 100.351 16.6726C99.6688 18.1387 99.3278 19.9287 99.3278 22.0426C99.3278 24.1736 99.6688 25.9721 100.351 27.4382C101.041 28.9043 101.983 30.0124 103.176 30.7625C104.37 31.5126 105.712 31.8877 107.204 31.8877C108.031 31.8877 108.815 31.7769 109.556 31.5552C110.307 31.3251 110.984 30.9884 111.589 30.5452C112.195 30.1019 112.706 29.5607 113.124 28.9214C113.55 28.2736 113.844 27.532 114.006 26.6966L117.995 26.7094C117.782 27.9965 117.369 29.1813 116.755 30.2639C116.15 31.3379 115.37 32.267 114.415 33.0512C113.469 33.8268 112.386 34.4278 111.167 34.854C109.949 35.2802 108.619 35.4933 107.178 35.4933C104.911 35.4933 102.891 34.9563 101.118 33.8822C99.3449 32.7997 97.9469 31.2526 96.9241 29.241C95.9097 27.2294 95.4026 24.8299 95.4026 22.0426C95.4026 19.2468 95.914 16.8473 96.9369 14.8442C97.9597 12.8326 99.3576 11.2898 101.131 10.2158C102.904 9.13325 104.919 8.59198 107.178 8.59198C108.568 8.59198 109.863 8.7923 111.065 9.19292C112.276 9.58501 113.362 10.1646 114.326 10.9318C115.289 11.6904 116.086 12.6195 116.716 13.7191C117.347 14.8101 117.773 16.0589 117.995 17.4653ZM122.723 35.1353V8.94999H126.673V31.7342H138.539V35.1353H122.723ZM139.092 8.94999H143.579L150.42 20.8535H150.701L157.541 8.94999H162.029L152.529 24.8555V35.1353H148.591V24.8555L139.092 8.94999Z" fill="black" fill-opacity="0.24"/>
</svg>
