<svg width="177" height="61" viewBox="0 0 177 61" fill="none" xmlns="http://www.w3.org/2000/svg">
<path d="M15.1531 6.24792H26.0158V8.92489H18.5159V12.6417H25.5512V15.3408H18.5159V19.323H26.0158V22H15.1531V6.24792ZM42.0474 6.24792V22H39.481L31.6271 11.9558V22H28.397V6.24792H30.9413L38.7952 16.27V6.24792H42.0474Z" fill="black"/>
<path d="M77.1679 22H73.5175L71.5042 16.7567C71.342 16.3437 71.0913 16.0561 70.752 15.8939C70.4276 15.7316 70.0146 15.6505 69.5131 15.6505H67.2786V22H63.8716V6.24792H70.8848C72.7137 6.24792 74.1001 6.64614 75.044 7.4426C75.988 8.23905 76.46 9.38211 76.46 10.8718C76.46 11.919 76.1797 12.8187 75.6193 13.5709C75.0735 14.3231 74.2845 14.8614 73.252 15.1859C74.1812 15.3776 74.8523 16.0192 75.2653 17.1107L77.1679 22ZM70.3759 13.0178C71.3641 13.0178 72.0868 12.8555 72.5441 12.5311C73.0013 12.1918 73.2299 11.6682 73.2299 10.9603C73.2299 10.2523 73.0013 9.73609 72.5441 9.41161C72.0868 9.07238 71.3641 8.90276 70.3759 8.90276H67.2344V13.0178H70.3759ZM79.5353 6.24792H90.3981V8.92489H82.8981V12.6417H89.9335V15.3408H82.8981V19.323H90.3981V22H79.5353V6.24792ZM103.094 18.5045H95.7269L94.2225 22H90.7491L97.9836 6.24792H100.771L108.006 22H104.599L103.094 18.5045ZM101.966 15.8717L99.4216 9.9647L96.8774 15.8717H101.966ZM110.991 9.05763H106.058V6.24792H119.42V9.05763H114.487V22H110.991V9.05763ZM121.255 6.24792H124.706V22H121.255V6.24792ZM142.888 6.24792L135.809 22H133.043L125.963 6.24792H129.548L134.459 17.6859L139.415 6.24792H142.888ZM144.135 6.24792H154.998V8.92489H147.498V12.6417H154.533V15.3408H147.498V19.323H154.998V22H144.135V6.24792Z" fill="black"/>
<path d="M62.2717 10.4179C61.3726 8.88813 59.9863 7.7042 58.3346 7.05559C56.683 6.40699 54.8615 6.33119 53.1617 6.84034C51.4619 7.34948 49.982 8.41414 48.9589 9.86391C47.9358 11.3137 47.4286 13.0648 47.5185 14.8369C47.6084 16.6091 48.2902 18.2998 49.4548 19.6386C50.6193 20.9774 52.1994 21.8869 53.942 22.2214C55.6846 22.5559 57.4891 22.2961 59.0666 21.4837C60.6441 20.6713 61.9035 19.3532 62.6432 17.7402L59.5267 16.311C59.1069 17.2264 58.3921 17.9745 57.4968 18.4356C56.6015 18.8967 55.5774 19.0441 54.5883 18.8542C53.5993 18.6644 52.7026 18.1482 52.0416 17.3884C51.3807 16.6286 50.9937 15.669 50.9427 14.6632C50.8917 13.6574 51.1795 12.6636 51.7602 11.8408C52.3409 11.018 53.1808 10.4137 54.1455 10.1248C55.1102 9.8358 56.144 9.87882 57.0814 10.2469C58.0188 10.615 58.8056 11.287 59.3159 12.1552L62.2717 10.4179Z" fill="black"/>
<path d="M58.2338 14.3145C58.2273 13.5519 57.918 12.8231 57.3741 12.2884C56.8303 11.7538 56.0963 11.4571 55.3336 11.4637C54.571 11.4702 53.8422 11.7794 53.3076 12.3233C52.773 12.8672 52.4763 13.6012 52.4828 14.3638L55.3583 14.3392L58.2338 14.3145Z" fill="black"/>
<path d="M7.23445 49.8554C5.98078 49.8554 4.80822 49.7006 3.71678 49.3908C2.62535 49.0811 1.69615 48.6534 0.929196 48.1076L1.94689 45.4086C2.44836 45.7478 2.97933 46.0354 3.53979 46.2714C4.10026 46.5074 4.69023 46.6917 5.30969 46.8245C5.92916 46.9425 6.57812 47.0015 7.25658 47.0015C8.31852 47.0015 9.07072 46.8392 9.5132 46.5147C9.97042 46.1903 10.199 45.7773 10.199 45.2758C10.199 44.8186 10.0442 44.472 9.73443 44.236C9.43945 43.9853 8.89373 43.7714 8.09728 43.5944L5.48668 43.0634C4.05601 42.7685 2.9867 42.267 2.27874 41.559C1.57078 40.8511 1.2168 39.9071 1.2168 38.7272C1.2168 37.7243 1.48229 36.8541 2.01326 36.1166C2.54423 35.3791 3.28906 34.8039 4.24775 34.3909C5.2212 33.978 6.35688 33.7715 7.6548 33.7715C8.76099 33.7715 9.79343 33.9263 10.7521 34.2361C11.7108 34.5458 12.4999 34.9883 13.1194 35.5635L12.1017 38.0856C11.497 37.5989 10.8185 37.2375 10.0663 37.0015C9.32883 36.7508 8.50288 36.6254 7.58843 36.6254C6.62974 36.6254 5.89228 36.7951 5.37606 37.1343C4.87459 37.4735 4.62386 37.9381 4.62386 38.5281C4.62386 38.9706 4.77872 39.3319 5.08845 39.6121C5.39819 39.8776 5.9439 40.0915 6.72561 40.2537L9.29196 40.7626C10.7521 41.0576 11.8362 41.5517 12.5441 42.2449C13.2521 42.9381 13.6061 43.8599 13.6061 45.0103C13.6061 45.9838 13.3406 46.8318 12.8096 47.5546C12.2934 48.2773 11.556 48.8451 10.5973 49.2581C9.65331 49.6563 8.53238 49.8554 7.23445 49.8554ZM19.4369 49.6121V36.8246H14.4812V34.0148H27.8439V36.8246H22.8882V49.6121H19.4369ZM36.4263 49.8554C34.1402 49.8554 32.4367 49.2876 31.3158 48.1519C30.1948 47.0162 29.6344 45.3274 29.6344 43.0856V34.0148H33.0857V43.1077C33.0857 44.3614 33.3512 45.3127 33.8821 45.9616C34.4278 46.6106 35.2759 46.9351 36.4263 46.9351C37.5473 46.9351 38.3806 46.6106 38.9263 45.9616C39.4868 45.3127 39.767 44.3614 39.767 43.1077V34.0148H43.1741V43.0856C43.1741 45.3274 42.6062 47.0162 41.4706 48.1519C40.3496 49.2876 38.6682 49.8554 36.4263 49.8554ZM46.2292 49.6121V34.0148H52.1805C53.9946 34.0148 55.5286 34.3246 56.7822 34.944C58.0359 35.5635 58.9799 36.4558 59.6141 37.621C60.263 38.7714 60.5875 40.1652 60.5875 41.8024C60.5875 43.4248 60.263 44.8186 59.6141 45.9838C58.9799 47.149 58.0359 48.0487 56.7822 48.6829C55.5286 49.3023 53.9946 49.6121 52.1805 49.6121H46.2292ZM49.6805 46.7802H51.9814C53.7218 46.7802 55.0123 46.3746 55.853 45.5634C56.7085 44.7375 57.1362 43.4838 57.1362 41.8024C57.1362 40.1062 56.7085 38.8526 55.853 38.0414C55.0123 37.2302 53.7218 36.8246 51.9814 36.8246H49.6805V46.7802ZM63.2973 49.6121V34.0148H66.7486V49.6121H63.2973Z" fill="black"/>
<circle cx="87.4972" cy="34.6176" r="2.37126" fill="#6842EF"/>
<path d="M86.3506 41.8919C86.3506 46.3734 82.7176 50.0064 78.2361 50.0064C73.7546 50.0064 70.1216 46.3734 70.1216 41.8919C70.1216 37.4103 73.7546 33.7773 78.2361 33.7773C82.7176 33.7773 86.3506 37.4103 86.3506 41.8919ZM73.5798 41.8919C73.5798 44.4635 75.6645 46.5482 78.2361 46.5482C80.8077 46.5482 82.8924 44.4635 82.8924 41.8919C82.8924 39.3203 80.8077 37.2356 78.2361 37.2356C75.6645 37.2356 73.5798 39.3203 73.5798 41.8919Z" fill="black"/>
<path d="M8.52964 16.5354C9.18525 16.5371 9.91364 16.3254 10.52 16.0761C11.1263 15.8267 11.6628 15.4667 12.1276 15.0043C12.5924 14.5419 12.9168 13.9503 13.1693 13.3453C13.4217 12.7402 13.5525 12.0913 13.5542 11.4357C13.5558 10.7801 13.4284 10.1306 13.179 9.52423C12.9297 8.91788 12.5633 8.36658 12.1009 7.90181C11.6385 7.43704 11.0891 7.0679 10.484 6.81546C9.87896 6.56303 9.18525 6.43217 8.52964 6.4305L8.52964 9.18639C8.82372 9.18714 9.15259 9.243 9.424 9.35624C9.69541 9.46947 9.94186 9.63505 10.1493 9.84353C10.3567 10.052 10.521 10.2993 10.6329 10.5713C10.7447 10.8433 10.8019 11.1346 10.8011 11.4287C10.8004 11.7228 10.7417 12.0138 10.6285 12.2852C10.5153 12.5566 10.3497 12.8031 10.1412 13.0105C9.93272 13.2179 9.68543 13.3823 9.41345 13.4941C9.14147 13.6059 8.82372 13.6272 8.52964 13.6264L8.52964 16.5354Z" fill="black"/>
<rect x="1.33423" y="6.43237" width="3.36829" height="15.7697" fill="black"/>
<path d="M1.33423 6.43237H8.68322V9.18825H1.33423V6.43237Z" fill="black"/>
<rect x="1.33374" y="13.6262" width="7.34899" height="2.90898" fill="black"/>
</svg>
